<svg version="1.1" viewBox="0 0 24 24" height="24" width="24" xmlns="http://www.w3.org/2000/svg" xmlns:xlink="http://www.w3.org/1999/xlink">
    <g fill="currentcolor">
        <path d="M12,0c-6.616,0 -12,5.383 -12,12c0,6.617 5.384,12 12,12c6.617,0 12,-5.383 12,-12c0,-6.617 -5.383,-12 -12,-12Zm8,16c0,1.103 -0.896,2 -2,2h-12c-1.102,0 -2,-0.897 -2,-2v-8c0,-1.103 0.898,-2 2,-2h12c1.104,0 2,0.897 2,2v8Z"></path>
        <path d="M17.888,8.184c-0.175,-0.214 -0.489,-0.245 -0.704,-0.07l-5.184,4.24l-5.183,-4.24c-0.213,-0.176 -0.528,-0.144 -0.704,0.07c-0.174,0.214 -0.143,0.529 0.07,0.704l3.618,2.96l-3.565,2.229c-0.234,0.147 -0.307,0.455 -0.16,0.689c0.096,0.151 0.258,0.234 0.425,0.234c0.091,0 0.183,-0.024 0.265,-0.075l3.854,-2.409l1.064,0.872c0.091,0.074 0.205,0.112 0.316,0.112c0.113,0 0.225,-0.038 0.317,-0.113l1.065,-0.872l3.854,2.409c0.082,0.052 0.174,0.076 0.264,0.076c0.167,0 0.33,-0.083 0.425,-0.234c0.146,-0.235 0.075,-0.542 -0.159,-0.689l-3.566,-2.229l3.618,-2.96c0.213,-0.176 0.245,-0.491 0.07,-0.704Z"></path>
    </g>
</svg>
