<svg version="1.1" viewBox="0 0 24 24" height="24" width="24" xmlns="http://www.w3.org/2000/svg" xmlns:xlink="http://www.w3.org/1999/xlink">
    <path d="M12,0.004c-6.617,0 -12,5.383 -12,12c0,6.617 5.383,12 12,12c6.617,0 12,-5.383 12,-12c0,-6.617 -5.383,-12 -12,-12Zm7.248,12.434l-10.5,6c-0.077,0.044 -0.163,0.065 -0.248,0.065c-0.087,0 -0.173,-0.022 -0.251,-0.067c-0.154,-0.089 -0.249,-0.253 -0.249,-0.432v-12c0,-0.179 0.095,-0.343 0.249,-0.433c0.154,-0.089 0.344,-0.091 0.499,-0.002l10.5,6c0.156,0.09 0.252,0.255 0.252,0.435c0,0.18 -0.096,0.345 -0.252,0.434Z" fill="currentcolor"></path>
</svg>
