<svg version="1.1" viewBox="0 0 48 48" xmlns="http://www.w3.org/2000/svg" xmlns:xlink="http://www.w3.org/1999/xlink">

    <g transform="scale(0.428571)">
        <path fill="none" stroke="#4550E5" stroke-linecap="round" stroke-linejoin="round" stroke-width="1" d="M89.86,97.79h-79.72l1.24484e-07,2.41727e-10c-2.84036,-0.0055152 -5.14001,-2.30963 -5.14,-5.15v-65.57l5.68434e-14,7.76118e-07c-4.28638e-07,-2.83874 2.30126,-5.14 5.14,-5.14h79.72h-2.24677e-07c2.83874,-1.24085e-07 5.14,2.30126 5.14,5.14v65.57l9.15179e-12,9.70875e-06c0,2.84037 -2.29965,5.14448 -5.14001,5.14999Z"></path>
        <path fill="none" stroke="#4550E5" stroke-linecap="round" stroke-linejoin="round" stroke-width="1" d="M95,60.5v32.14l9.166e-12,9.70875e-06c0,2.84037 -2.29965,5.14448 -5.14001,5.14999h-36c0,0 20.57,-6.43 41.14,-37.29Z"></path>
        <path fill="none" stroke="#4550E5" stroke-linecap="round" stroke-linejoin="round" stroke-width="1" d="M95,45.07h-90v-18l5.68434e-14,7.76118e-07c-4.28638e-07,-2.83874 2.30126,-5.14 5.14,-5.14h79.72l-2.24677e-07,3.55271e-15c2.83874,-1.24085e-07 5.14,2.30126 5.14,5.14Z"></path>
        <path fill="none" stroke="#4550E5" stroke-linecap="round" stroke-linejoin="round" stroke-width="1" d="M24.29,29.64l-3.80759e-07,4.92882e-10c-4.26363,0.00551906 -7.72447,-3.44637 -7.72999,-7.71c-0.00551906,-4.26363 3.44637,-7.72447 7.71,-7.72999c4.26363,-0.00551906 7.72447,3.44637 7.72999,7.71c8.62409e-06,0.00666235 8.62376e-06,0.0133247 -9.85786e-10,0.0199871"></path>
        <path fill="none" stroke="#4550E5" stroke-linecap="round" stroke-linejoin="round" stroke-width="1" d="M51.29,29.64l-3.80759e-07,4.92882e-10c-4.26363,0.00551906 -7.72447,-3.44637 -7.72999,-7.71c-0.00551906,-4.26363 3.44637,-7.72447 7.71,-7.72999c4.26363,-0.00551906 7.72447,3.44637 7.72999,7.71c8.62409e-06,0.00666235 8.62376e-06,0.0133247 -9.85786e-10,0.0199871"></path>
        <path fill="none" stroke="#4550E5" stroke-linecap="round" stroke-linejoin="round" stroke-width="1" d="M78.29,29.64l-3.80759e-07,4.92882e-10c-4.26363,0.00551906 -7.72447,-3.44637 -7.72999,-7.71c-0.00551906,-4.26363 3.44637,-7.72447 7.71,-7.72999c4.26363,-0.00551906 7.72447,3.44637 7.72999,7.71c8.62409e-06,0.00666235 8.62376e-06,0.0133247 -9.85793e-10,0.0199871"></path>
        <path fill="none" stroke="#4550E5" stroke-linecap="round" stroke-linejoin="round" stroke-width="1" d="M5,57.93h90"></path>
        <path fill="none" stroke="#4550E5" stroke-linecap="round" stroke-linejoin="round" stroke-width="1" d="M5,70.79h53.79"></path>
        <path fill="none" stroke="#4550E5" stroke-linecap="round" stroke-linejoin="round" stroke-width="1" d="M5,83.64h53.79"></path>
        <path fill="none" stroke="#4550E5" stroke-linecap="round" stroke-linejoin="round" stroke-width="1" d="M23,45.07v52.72"></path>
        <path fill="none" stroke="#4550E5" stroke-linecap="round" stroke-linejoin="round" stroke-width="1" d="M41,45.07v52.72"></path>
        <path fill="none" stroke="#4550E5" stroke-linecap="round" stroke-linejoin="round" stroke-width="1" d="M59,45.07v17.45"></path>
        <path fill="none" stroke="#4550E5" stroke-linecap="round" stroke-linejoin="round" stroke-width="1" d="M77,45.07v19.8"></path>
        <path fill="none" stroke="#4550E5" stroke-linecap="round" stroke-linejoin="round" stroke-width="1" d="M5,57.93h18v12.86h-18Z"></path>
        <path fill="none" stroke="#4550E5" stroke-linecap="round" stroke-linejoin="round" stroke-width="1" d="M23,83.64h18v14.14h-18Z"></path>
        <path fill="none" stroke="#4550E5" stroke-linecap="round" stroke-linejoin="round" stroke-width="1" d="M41,45.07h18v12.86h-18Z"></path>
        <path fill="none" stroke="#4550E5" stroke-linecap="round" stroke-linejoin="round" stroke-width="1" d="M95,60.5c-20.57,30.86 -41.14,37.29 -41.14,37.29c0,0 9.61,-14.46 3.25,-34.05l-9.82705e-09,-2.76208e-08c-0.196234,-0.551553 0.091809,-1.15775 0.643362,-1.35399c0.201474,-0.0716812 0.419917,-0.0807486 0.626638,-0.0260114c5.94,1.64 23.86,5.64 36.62,-1.86Z"></path>
        <path fill="none" stroke="#4550E5" stroke-linecap="round" stroke-linejoin="round" stroke-width="1" d="M37.14,37.36h25.72"></path>
        <path fill="none" stroke="#4550E5" stroke-linecap="round" stroke-linejoin="round" stroke-width="1" d="M77,37.36h10.29"></path>
        <path fill="none" stroke="#4550E5" stroke-linecap="round" stroke-linejoin="round" stroke-width="1" d="M23,37.36h-10.29"></path>
    </g>
</svg>
